<svg viewBox="0 0 32 32" height="32" width="32" xmlns="http://www.w3.org/2000/svg" xml:space="preserve" style="fill-rule:evenodd;clip-rule:evenodd;stroke-linejoin:round;stroke-miterlimit:2">
  <path d="M18 10.8c0 1.1-.9 2-2 2s-2-.9-2-2 .9-2 2-2 2 .9 2 2Z" style="fill:#1f1f1f;fill-rule:nonzero"/>
  <path d="M9.5 22.3c0 1.1-.9 2-2 2s-2-.9-2-2 .9-2 2-2 2 .9 2 2Z" style="fill:#1f1f1f;fill-rule:nonzero"/>
  <path d="M18 22.3c0 1.1-.9 2-2 2s-2-.9-2-2 .9-2 2-2 2 .9 2 2Z" style="fill:#1f1f1f;fill-rule:nonzero"/>
  <path d="M26.5 22.3c0 1.1-.9 2-2 2s-2-.9-2-2 .9-2 2-2 2 .9 2 2Z" style="fill:#1f1f1f;fill-rule:nonzero"/>
  <path d="M14.9 12.8h2.2v4.1h7.1c.6 0 1.1.5 1.1 1.1 0 .6-.5 1.1-1.1 1.1h-1.1v2.1h-2.2v-2.1h-3.8v2.1h-2.2v-2.1h-3.8v2.1H8.9v-2.1H7.8c-.6 0-1.1-.5-1.1-1.1 0-.6.5-1.1 1.1-1.1h7.1v-4.1Z" style="fill:#1f1f1f;fill-rule:nonzero"/>
</svg>
